<mxfile host="app.diagrams.net" modified="2023-06-09T07:35:56.028Z" agent="Mozilla/5.0 (Windows NT 10.0; Win64; x64) AppleWebKit/537.36 (KHTML, like Gecko) Chrome/114.0.0.0 Safari/537.36" etag="Og3h4SY9l1hLA-JfwRL-" version="21.3.2" type="github">
  <diagram id="C5RBs43oDa-KdzZeNtuy" name="Page-1">
    <mxGraphModel dx="1221" dy="743" grid="1" gridSize="10" guides="1" tooltips="1" connect="1" arrows="1" fold="1" page="1" pageScale="1" pageWidth="827" pageHeight="1169" math="0" shadow="0">
      <root>
        <mxCell id="WIyWlLk6GJQsqaUBKTNV-0" />
        <mxCell id="WIyWlLk6GJQsqaUBKTNV-1" parent="WIyWlLk6GJQsqaUBKTNV-0" />
        <mxCell id="9KZ1MHiu0KIMzdp4uJZd-9" value="" style="edgeStyle=orthogonalEdgeStyle;orthogonalLoop=1;jettySize=auto;html=1;curved=1;entryX=0;entryY=0.5;entryDx=0;entryDy=0;exitX=0.5;exitY=0;exitDx=0;exitDy=0;" edge="1" parent="WIyWlLk6GJQsqaUBKTNV-1" source="WIyWlLk6GJQsqaUBKTNV-3" target="9KZ1MHiu0KIMzdp4uJZd-8">
          <mxGeometry relative="1" as="geometry" />
        </mxCell>
        <mxCell id="WIyWlLk6GJQsqaUBKTNV-3" value="&lt;h3 style=&quot;&quot;&gt;&lt;b style=&quot;font-size: 12px;&quot;&gt;自有数据库表信息&lt;/b&gt;&lt;b style=&quot;background-color: initial; border-color: var(--border-color); font-size: 12px;&quot;&gt;整理&lt;/b&gt;&lt;/h3&gt;" style="rounded=1;whiteSpace=wrap;html=1;fontSize=12;glass=0;strokeWidth=1;shadow=0;fillColor=#dae8fc;strokeColor=#6c8ebf;" parent="WIyWlLk6GJQsqaUBKTNV-1" vertex="1">
          <mxGeometry x="20" y="230" width="130" height="60" as="geometry" />
        </mxCell>
        <mxCell id="9KZ1MHiu0KIMzdp4uJZd-5" value="" style="edgeStyle=orthogonalEdgeStyle;orthogonalLoop=1;jettySize=auto;html=1;curved=1;" edge="1" parent="WIyWlLk6GJQsqaUBKTNV-1" source="WIyWlLk6GJQsqaUBKTNV-7" target="9KZ1MHiu0KIMzdp4uJZd-4">
          <mxGeometry relative="1" as="geometry" />
        </mxCell>
        <mxCell id="WIyWlLk6GJQsqaUBKTNV-7" value="&lt;b&gt;结构化数据&lt;/b&gt;" style="rounded=1;whiteSpace=wrap;html=1;fontSize=12;glass=0;strokeWidth=1;shadow=0;fillColor=#dae8fc;strokeColor=#6c8ebf;" parent="WIyWlLk6GJQsqaUBKTNV-1" vertex="1">
          <mxGeometry x="380" y="100" width="120" height="60" as="geometry" />
        </mxCell>
        <mxCell id="9KZ1MHiu0KIMzdp4uJZd-12" value="" style="edgeStyle=orthogonalEdgeStyle;orthogonalLoop=1;jettySize=auto;html=1;curved=1;entryX=1;entryY=0.5;entryDx=0;entryDy=0;exitX=0.5;exitY=1;exitDx=0;exitDy=0;" edge="1" parent="WIyWlLk6GJQsqaUBKTNV-1" source="9KZ1MHiu0KIMzdp4uJZd-4" target="9KZ1MHiu0KIMzdp4uJZd-11">
          <mxGeometry relative="1" as="geometry" />
        </mxCell>
        <mxCell id="9KZ1MHiu0KIMzdp4uJZd-4" value="&lt;b&gt;模型训练&lt;/b&gt;" style="rounded=1;whiteSpace=wrap;html=1;fillColor=#dae8fc;strokeColor=#6c8ebf;" vertex="1" parent="WIyWlLk6GJQsqaUBKTNV-1">
          <mxGeometry x="530" y="190" width="120" height="60" as="geometry" />
        </mxCell>
        <mxCell id="9KZ1MHiu0KIMzdp4uJZd-10" style="edgeStyle=orthogonalEdgeStyle;orthogonalLoop=1;jettySize=auto;html=1;entryX=0;entryY=0.5;entryDx=0;entryDy=0;curved=1;" edge="1" parent="WIyWlLk6GJQsqaUBKTNV-1" source="9KZ1MHiu0KIMzdp4uJZd-8" target="WIyWlLk6GJQsqaUBKTNV-7">
          <mxGeometry relative="1" as="geometry" />
        </mxCell>
        <mxCell id="9KZ1MHiu0KIMzdp4uJZd-8" value="&lt;b&gt;数据预处理&lt;/b&gt;" style="whiteSpace=wrap;html=1;fillColor=#ffe6cc;strokeColor=#d79b00;rounded=1;glass=0;strokeWidth=1;shadow=0;" vertex="1" parent="WIyWlLk6GJQsqaUBKTNV-1">
          <mxGeometry x="190" y="110" width="80" height="60" as="geometry" />
        </mxCell>
        <mxCell id="9KZ1MHiu0KIMzdp4uJZd-14" value="" style="edgeStyle=orthogonalEdgeStyle;orthogonalLoop=1;jettySize=auto;html=1;curved=1;" edge="1" parent="WIyWlLk6GJQsqaUBKTNV-1" source="9KZ1MHiu0KIMzdp4uJZd-11" target="9KZ1MHiu0KIMzdp4uJZd-13">
          <mxGeometry relative="1" as="geometry" />
        </mxCell>
        <mxCell id="9KZ1MHiu0KIMzdp4uJZd-16" style="edgeStyle=orthogonalEdgeStyle;orthogonalLoop=1;jettySize=auto;html=1;entryX=0.5;entryY=1;entryDx=0;entryDy=0;curved=1;dashed=1;" edge="1" parent="WIyWlLk6GJQsqaUBKTNV-1" source="9KZ1MHiu0KIMzdp4uJZd-11" target="9KZ1MHiu0KIMzdp4uJZd-8">
          <mxGeometry relative="1" as="geometry" />
        </mxCell>
        <mxCell id="9KZ1MHiu0KIMzdp4uJZd-11" value="&lt;b&gt;模型测试&lt;/b&gt;" style="whiteSpace=wrap;html=1;rounded=1;fillColor=#dae8fc;strokeColor=#6c8ebf;" vertex="1" parent="WIyWlLk6GJQsqaUBKTNV-1">
          <mxGeometry x="354" y="300" width="120" height="60" as="geometry" />
        </mxCell>
        <mxCell id="9KZ1MHiu0KIMzdp4uJZd-13" value="&lt;b&gt;模型输出&lt;/b&gt;" style="whiteSpace=wrap;html=1;rounded=1;fillColor=#ffe6cc;strokeColor=#d79b00;" vertex="1" parent="WIyWlLk6GJQsqaUBKTNV-1">
          <mxGeometry x="294" y="420" width="120" height="60" as="geometry" />
        </mxCell>
      </root>
    </mxGraphModel>
  </diagram>
</mxfile>
